<svg xmlns="http://www.w3.org/2000/svg" viewBox="0 0 100 100">
  <defs>
    <linearGradient id="grad" x1="0%" y1="0%" x2="100%" y2="100%">
      <stop offset="0%" style="stop-color:#22d3ee"/>
      <stop offset="100%" style="stop-color:#d946ef"/>
    </linearGradient>
  </defs>
  <!-- Forma de diente -->
  <path d="
    M 50 8
    C 35 8, 20 16, 18 30
    C 16 40, 20 50, 18 65
    C 16 75, 20 88, 28 90
    C 34 92, 38 82, 40 72
    C 42 62, 44 58, 50 58
    C 56 58, 58 62, 60 72
    C 62 82, 66 92, 72 90
    C 80 88, 84 75, 82 65
    C 80 50, 84 40, 82 30
    C 80 16, 65 8, 50 8 Z
  " fill="url(#grad)"/>
  <!-- Brillo -->
  <ellipse cx="38" cy="28" rx="7" ry="10" fill="white" opacity="0.25" transform="rotate(-15 38 28)"/>
</svg>
